<svg id="visual" viewBox="0 0 900 600" width="900" height="600" xmlns="http://www.w3.org/2000/svg" xmlns:xlink="http://www.w3.org/1999/xlink" version="1.1"><rect x="0" y="0" width="900" height="600" fill="#e3e1d9"></rect><defs><linearGradient id="grad1_0" x1="33.3%" y1="0%" x2="100%" y2="100%"><stop offset="20%" stop-color="#e3e1d9" stop-opacity="1"></stop><stop offset="80%" stop-color="#e3e1d9" stop-opacity="1"></stop></linearGradient></defs><defs><linearGradient id="grad2_0" x1="0%" y1="0%" x2="66.7%" y2="100%"><stop offset="20%" stop-color="#e3e1d9" stop-opacity="1"></stop><stop offset="80%" stop-color="#e3e1d9" stop-opacity="1"></stop></linearGradient></defs><g transform="translate(900, 0)"><path d="M0 324.5C-59.4 317.6 -118.9 310.6 -162.2 281C-205.6 251.4 -232.9 199.1 -257.2 148.5C-281.6 97.9 -303 48.9 -324.5 0L0 0Z" fill="#006769"></path></g><g transform="translate(0, 600)"><path d="M0 -324.5C62.2 -319.2 124.4 -313.8 162.2 -281C200.1 -248.2 213.5 -187.9 236.4 -136.5C259.4 -85.1 291.9 -42.5 324.5 0L0 0Z" fill="#006769"></path></g></svg>