<svg id="visual" viewBox="0 0 900 600" width="900" height="600" xmlns="http://www.w3.org/2000/svg" xmlns:xlink="http://www.w3.org/1999/xlink" version="1.1"><path d="M0 398L21.5 405.3C43 412.7 86 427.3 128.8 420C171.7 412.7 214.3 383.3 257.2 369C300 354.7 343 355.3 385.8 370.5C428.7 385.7 471.3 415.3 514.2 414.2C557 413 600 381 642.8 381.5C685.7 382 728.3 415 771.2 422.2C814 429.3 857 410.7 878.5 401.3L900 392L900 601L878.5 601C857 601 814 601 771.2 601C728.3 601 685.7 601 642.8 601C600 601 557 601 514.2 601C471.3 601 428.7 601 385.8 601C343 601 300 601 257.2 601C214.3 601 171.7 601 128.8 601C86 601 43 601 21.5 601L0 601Z" fill="#006769"></path><path d="M0 443L21.5 448.8C43 454.7 86 466.3 128.8 470.8C171.7 475.3 214.3 472.7 257.2 461.7C300 450.7 343 431.3 385.8 426.5C428.7 421.7 471.3 431.3 514.2 437.5C557 443.7 600 446.3 642.8 445.8C685.7 445.3 728.3 441.7 771.2 434.5C814 427.3 857 416.7 878.5 411.3L900 406L900 601L878.5 601C857 601 814 601 771.2 601C728.3 601 685.7 601 642.8 601C600 601 557 601 514.2 601C471.3 601 428.7 601 385.8 601C343 601 300 601 257.2 601C214.3 601 171.7 601 128.8 601C86 601 43 601 21.5 601L0 601Z" fill="#175254"></path><path d="M0 483L21.5 481C43 479 86 475 128.8 470.7C171.7 466.3 214.3 461.7 257.2 467.7C300 473.7 343 490.3 385.8 498.3C428.7 506.3 471.3 505.7 514.2 500.5C557 495.3 600 485.7 642.8 477C685.7 468.3 728.3 460.7 771.2 459.8C814 459 857 465 878.5 468L900 471L900 601L878.5 601C857 601 814 601 771.2 601C728.3 601 685.7 601 642.8 601C600 601 557 601 514.2 601C471.3 601 428.7 601 385.8 601C343 601 300 601 257.2 601C214.3 601 171.7 601 128.8 601C86 601 43 601 21.5 601L0 601Z" fill="#1d3e3f"></path><path d="M0 503L21.5 501.8C43 500.7 86 498.3 128.8 495.8C171.7 493.3 214.3 490.7 257.2 495.3C300 500 343 512 385.8 513.2C428.7 514.3 471.3 504.7 514.2 506.3C557 508 600 521 642.8 519C685.7 517 728.3 500 771.2 493.8C814 487.7 857 492.3 878.5 494.7L900 497L900 601L878.5 601C857 601 814 601 771.2 601C728.3 601 685.7 601 642.8 601C600 601 557 601 514.2 601C471.3 601 428.7 601 385.8 601C343 601 300 601 257.2 601C214.3 601 171.7 601 128.8 601C86 601 43 601 21.5 601L0 601Z" fill="#1d2b2b"></path><path d="M0 534L21.5 537.5C43 541 86 548 128.8 552.2C171.7 556.3 214.3 557.7 257.2 554.2C300 550.7 343 542.3 385.8 544.2C428.7 546 471.3 558 514.2 559.7C557 561.3 600 552.7 642.8 548.8C685.7 545 728.3 546 771.2 548.3C814 550.7 857 554.3 878.5 556.2L900 558L900 601L878.5 601C857 601 814 601 771.2 601C728.3 601 685.7 601 642.8 601C600 601 557 601 514.2 601C471.3 601 428.7 601 385.8 601C343 601 300 601 257.2 601C214.3 601 171.7 601 128.8 601C86 601 43 601 21.5 601L0 601Z" fill="#191919"></path></svg>