<svg id="visual" viewBox="0 0 900 600" width="900" height="600" xmlns="http://www.w3.org/2000/svg" xmlns:xlink="http://www.w3.org/1999/xlink" version="1.1"><path d="M0 92L21.5 88.7C43 85.3 86 78.7 128.8 92.8C171.7 107 214.3 142 257.2 141.3C300 140.7 343 104.3 385.8 90.3C428.7 76.3 471.3 84.7 514.2 96.5C557 108.3 600 123.7 642.8 127.8C685.7 132 728.3 125 771.2 130.3C814 135.7 857 153.3 878.5 162.2L900 171L900 0L878.5 0C857 0 814 0 771.2 0C728.3 0 685.7 0 642.8 0C600 0 557 0 514.2 0C471.3 0 428.7 0 385.8 0C343 0 300 0 257.2 0C214.3 0 171.7 0 128.8 0C86 0 43 0 21.5 0L0 0Z" fill="#006769"></path><path d="M0 119L21.5 113.7C43 108.3 86 97.7 128.8 91.2C171.7 84.7 214.3 82.3 257.2 88.5C300 94.7 343 109.3 385.8 105.2C428.7 101 471.3 78 514.2 71.3C557 64.7 600 74.3 642.8 82.7C685.7 91 728.3 98 771.2 92.8C814 87.7 857 70.3 878.5 61.7L900 53L900 0L878.5 0C857 0 814 0 771.2 0C728.3 0 685.7 0 642.8 0C600 0 557 0 514.2 0C471.3 0 428.7 0 385.8 0C343 0 300 0 257.2 0C214.3 0 171.7 0 128.8 0C86 0 43 0 21.5 0L0 0Z" fill="#145658"></path><path d="M0 121L21.5 114.3C43 107.7 86 94.3 128.8 84.3C171.7 74.3 214.3 67.7 257.2 62.7C300 57.7 343 54.3 385.8 63.2C428.7 72 471.3 93 514.2 104.3C557 115.7 600 117.3 642.8 112C685.7 106.7 728.3 94.3 771.2 83C814 71.7 857 61.3 878.5 56.2L900 51L900 0L878.5 0C857 0 814 0 771.2 0C728.3 0 685.7 0 642.8 0C600 0 557 0 514.2 0C471.3 0 428.7 0 385.8 0C343 0 300 0 257.2 0C214.3 0 171.7 0 128.8 0C86 0 43 0 21.5 0L0 0Z" fill="#1c4647"></path><path d="M0 61L21.5 61.3C43 61.7 86 62.3 128.8 58.7C171.7 55 214.3 47 257.2 50.5C300 54 343 69 385.8 71.5C428.7 74 471.3 64 514.2 61.8C557 59.7 600 65.3 642.8 70.2C685.7 75 728.3 79 771.2 75C814 71 857 59 878.5 53L900 47L900 0L878.5 0C857 0 814 0 771.2 0C728.3 0 685.7 0 642.8 0C600 0 557 0 514.2 0C471.3 0 428.7 0 385.8 0C343 0 300 0 257.2 0C214.3 0 171.7 0 128.8 0C86 0 43 0 21.5 0L0 0Z" fill="#1d3637"></path><path d="M0 25L21.5 32.7C43 40.3 86 55.7 128.8 56.8C171.7 58 214.3 45 257.2 38.5C300 32 343 32 385.8 37.5C428.7 43 471.3 54 514.2 53.5C557 53 600 41 642.8 36C685.7 31 728.3 33 771.2 35C814 37 857 39 878.5 40L900 41L900 0L878.5 0C857 0 814 0 771.2 0C728.3 0 685.7 0 642.8 0C600 0 557 0 514.2 0C471.3 0 428.7 0 385.8 0C343 0 300 0 257.2 0C214.3 0 171.7 0 128.8 0C86 0 43 0 21.5 0L0 0Z" fill="#1c2728"></path><path d="M0 34L21.5 34.2C43 34.3 86 34.7 128.8 33.5C171.7 32.3 214.3 29.7 257.2 28.7C300 27.7 343 28.3 385.8 30.8C428.7 33.3 471.3 37.7 514.2 40.2C557 42.7 600 43.3 642.8 42.3C685.7 41.3 728.3 38.7 771.2 37.3C814 36 857 36 878.5 36L900 36L900 0L878.5 0C857 0 814 0 771.2 0C728.3 0 685.7 0 642.8 0C600 0 557 0 514.2 0C471.3 0 428.7 0 385.8 0C343 0 300 0 257.2 0C214.3 0 171.7 0 128.8 0C86 0 43 0 21.5 0L0 0Z" fill="#191919"></path></svg>