<svg id="visual" viewBox="0 0 900 600" width="900" height="600" xmlns="http://www.w3.org/2000/svg" xmlns:xlink="http://www.w3.org/1999/xlink" version="1.1"><path d="M0 200L21.5 192.7C43 185.3 86 170.7 128.8 178C171.7 185.3 214.3 214.7 257.2 229C300 243.3 343 242.7 385.8 227.5C428.7 212.3 471.3 182.7 514.2 183.8C557 185 600 217 642.8 216.5C685.7 216 728.3 183 771.2 175.8C814 168.7 857 187.3 878.5 196.7L900 206L900 0L878.5 0C857 0 814 0 771.2 0C728.3 0 685.7 0 642.8 0C600 0 557 0 514.2 0C471.3 0 428.7 0 385.8 0C343 0 300 0 257.2 0C214.3 0 171.7 0 128.8 0C86 0 43 0 21.5 0L0 0Z" fill="#006769"></path><path d="M0 155L21.5 149.2C43 143.3 86 131.7 128.8 127.2C171.7 122.7 214.3 125.3 257.2 136.3C300 147.3 343 166.7 385.8 171.5C428.7 176.3 471.3 166.7 514.2 160.5C557 154.3 600 151.7 642.8 152.2C685.7 152.7 728.3 156.3 771.2 163.5C814 170.7 857 181.3 878.5 186.7L900 192L900 0L878.5 0C857 0 814 0 771.2 0C728.3 0 685.7 0 642.8 0C600 0 557 0 514.2 0C471.3 0 428.7 0 385.8 0C343 0 300 0 257.2 0C214.3 0 171.7 0 128.8 0C86 0 43 0 21.5 0L0 0Z" fill="#175254"></path><path d="M0 115L21.5 117C43 119 86 123 128.8 127.3C171.7 131.7 214.3 136.3 257.2 130.3C300 124.3 343 107.7 385.8 99.7C428.7 91.7 471.3 92.3 514.2 97.5C557 102.7 600 112.3 642.8 121C685.7 129.7 728.3 137.3 771.2 138.2C814 139 857 133 878.5 130L900 127L900 0L878.5 0C857 0 814 0 771.2 0C728.3 0 685.7 0 642.8 0C600 0 557 0 514.2 0C471.3 0 428.7 0 385.8 0C343 0 300 0 257.2 0C214.3 0 171.7 0 128.8 0C86 0 43 0 21.5 0L0 0Z" fill="#1d3e3f"></path><path d="M0 95L21.5 96.2C43 97.3 86 99.7 128.8 102.2C171.7 104.7 214.3 107.3 257.2 102.7C300 98 343 86 385.8 84.8C428.7 83.7 471.3 93.3 514.2 91.7C557 90 600 77 642.8 79C685.7 81 728.3 98 771.2 104.2C814 110.3 857 105.7 878.5 103.3L900 101L900 0L878.5 0C857 0 814 0 771.2 0C728.3 0 685.7 0 642.8 0C600 0 557 0 514.2 0C471.3 0 428.7 0 385.8 0C343 0 300 0 257.2 0C214.3 0 171.7 0 128.8 0C86 0 43 0 21.5 0L0 0Z" fill="#1d2b2b"></path><path d="M0 64L21.5 60.5C43 57 86 50 128.8 45.8C171.7 41.7 214.3 40.3 257.2 43.8C300 47.3 343 55.7 385.8 53.8C428.7 52 471.3 40 514.2 38.3C557 36.7 600 45.3 642.8 49.2C685.7 53 728.3 52 771.2 49.7C814 47.3 857 43.7 878.5 41.8L900 40L900 0L878.5 0C857 0 814 0 771.2 0C728.3 0 685.7 0 642.8 0C600 0 557 0 514.2 0C471.3 0 428.7 0 385.8 0C343 0 300 0 257.2 0C214.3 0 171.7 0 128.8 0C86 0 43 0 21.5 0L0 0Z" fill="#191919"></path></svg>