<svg id="visual" viewBox="0 0 900 600" width="900" height="600" xmlns="http://www.w3.org/2000/svg" xmlns:xlink="http://www.w3.org/1999/xlink" version="1.1"><path d="M0 196L13.7 191.7C27.3 187.3 54.7 178.7 82 174.5C109.3 170.3 136.7 170.7 163.8 173.5C191 176.3 218 181.7 245.2 179.5C272.3 177.3 299.7 167.7 327 166.2C354.3 164.7 381.7 171.3 409 173.7C436.3 176 463.7 174 491 178.5C518.3 183 545.7 194 573 193.3C600.3 192.7 627.7 180.3 654.8 171.2C682 162 709 156 736.2 160.7C763.3 165.3 790.7 180.7 818 189.5C845.3 198.3 872.7 200.7 886.3 201.8L900 203L900 0L886.3 0C872.7 0 845.3 0 818 0C790.7 0 763.3 0 736.2 0C709 0 682 0 654.8 0C627.7 0 600.3 0 573 0C545.7 0 518.3 0 491 0C463.7 0 436.3 0 409 0C381.7 0 354.3 0 327 0C299.7 0 272.3 0 245.2 0C218 0 191 0 163.8 0C136.7 0 109.3 0 82 0C54.7 0 27.3 0 13.7 0L0 0Z" fill="#f38181"></path><path d="M0 143L13.7 140.7C27.3 138.3 54.7 133.7 82 133.5C109.3 133.3 136.7 137.7 163.8 139.8C191 142 218 142 245.2 141.2C272.3 140.3 299.7 138.7 327 142.5C354.3 146.3 381.7 155.7 409 162C436.3 168.3 463.7 171.7 491 168.7C518.3 165.7 545.7 156.3 573 156C600.3 155.7 627.7 164.3 654.8 161.3C682 158.3 709 143.7 736.2 144.2C763.3 144.7 790.7 160.3 818 164.3C845.3 168.3 872.7 160.7 886.3 156.8L900 153L900 0L886.3 0C872.7 0 845.3 0 818 0C790.7 0 763.3 0 736.2 0C709 0 682 0 654.8 0C627.7 0 600.3 0 573 0C545.7 0 518.3 0 491 0C463.7 0 436.3 0 409 0C381.7 0 354.3 0 327 0C299.7 0 272.3 0 245.2 0C218 0 191 0 163.8 0C136.7 0 109.3 0 82 0C54.7 0 27.3 0 13.7 0L0 0Z" fill="#eb717a"></path><path d="M0 123L13.7 122.7C27.3 122.3 54.7 121.7 82 124.7C109.3 127.7 136.7 134.3 163.8 135.7C191 137 218 133 245.2 132.8C272.3 132.7 299.7 136.3 327 135.2C354.3 134 381.7 128 409 123.5C436.3 119 463.7 116 491 116.7C518.3 117.3 545.7 121.7 573 119.3C600.3 117 627.7 108 654.8 108.5C682 109 709 119 736.2 121.2C763.3 123.3 790.7 117.7 818 117.5C845.3 117.3 872.7 122.7 886.3 125.3L900 128L900 0L886.3 0C872.7 0 845.3 0 818 0C790.7 0 763.3 0 736.2 0C709 0 682 0 654.8 0C627.7 0 600.3 0 573 0C545.7 0 518.3 0 491 0C463.7 0 436.3 0 409 0C381.7 0 354.3 0 327 0C299.7 0 272.3 0 245.2 0C218 0 191 0 163.8 0C136.7 0 109.3 0 82 0C54.7 0 27.3 0 13.7 0L0 0Z" fill="#e26074"></path><path d="M0 99L13.7 95.3C27.3 91.7 54.7 84.3 82 80.7C109.3 77 136.7 77 163.8 76.3C191 75.7 218 74.3 245.2 79.8C272.3 85.3 299.7 97.7 327 100.3C354.3 103 381.7 96 409 95.8C436.3 95.7 463.7 102.3 491 105C518.3 107.7 545.7 106.3 573 104C600.3 101.7 627.7 98.3 654.8 95.5C682 92.7 709 90.3 736.2 87C763.3 83.7 790.7 79.3 818 79C845.3 78.7 872.7 82.3 886.3 84.2L900 86L900 0L886.3 0C872.7 0 845.3 0 818 0C790.7 0 763.3 0 736.2 0C709 0 682 0 654.8 0C627.7 0 600.3 0 573 0C545.7 0 518.3 0 491 0C463.7 0 436.3 0 409 0C381.7 0 354.3 0 327 0C299.7 0 272.3 0 245.2 0C218 0 191 0 163.8 0C136.7 0 109.3 0 82 0C54.7 0 27.3 0 13.7 0L0 0Z" fill="#da4e6f"></path><path d="M0 73L13.7 68.7C27.3 64.3 54.7 55.7 82 50.7C109.3 45.7 136.7 44.3 163.8 46.3C191 48.3 218 53.7 245.2 56C272.3 58.3 299.7 57.7 327 60.7C354.3 63.7 381.7 70.3 409 70.8C436.3 71.3 463.7 65.7 491 65.8C518.3 66 545.7 72 573 73.2C600.3 74.3 627.7 70.7 654.8 68.7C682 66.7 709 66.3 736.2 68C763.3 69.7 790.7 73.3 818 74.3C845.3 75.3 872.7 73.7 886.3 72.8L900 72L900 0L886.3 0C872.7 0 845.3 0 818 0C790.7 0 763.3 0 736.2 0C709 0 682 0 654.8 0C627.7 0 600.3 0 573 0C545.7 0 518.3 0 491 0C463.7 0 436.3 0 409 0C381.7 0 354.3 0 327 0C299.7 0 272.3 0 245.2 0C218 0 191 0 163.8 0C136.7 0 109.3 0 82 0C54.7 0 27.3 0 13.7 0L0 0Z" fill="#d03a6b"></path><path d="M0 31L13.7 31C27.3 31 54.7 31 82 33.2C109.3 35.3 136.7 39.7 163.8 38.7C191 37.7 218 31.3 245.2 27.7C272.3 24 299.7 23 327 25.7C354.3 28.3 381.7 34.7 409 35C436.3 35.3 463.7 29.7 491 27.7C518.3 25.7 545.7 27.3 573 31.5C600.3 35.7 627.7 42.3 654.8 42.5C682 42.7 709 36.3 736.2 32.3C763.3 28.3 790.7 26.7 818 30C845.3 33.3 872.7 41.7 886.3 45.8L900 50L900 0L886.3 0C872.7 0 845.3 0 818 0C790.7 0 763.3 0 736.2 0C709 0 682 0 654.8 0C627.7 0 600.3 0 573 0C545.7 0 518.3 0 491 0C463.7 0 436.3 0 409 0C381.7 0 354.3 0 327 0C299.7 0 272.3 0 245.2 0C218 0 191 0 163.8 0C136.7 0 109.3 0 82 0C54.7 0 27.3 0 13.7 0L0 0Z" fill="#c62368"></path></svg>