<svg id="visual" viewBox="0 0 900 600" width="900" height="600" xmlns="http://www.w3.org/2000/svg" xmlns:xlink="http://www.w3.org/1999/xlink" version="1.1"><path d="M0 462L21.5 459.2C43 456.3 86 450.7 128.8 442.5C171.7 434.3 214.3 423.7 257.2 414.8C300 406 343 399 385.8 402.7C428.7 406.3 471.3 420.7 514.2 424.5C557 428.3 600 421.7 642.8 414.7C685.7 407.7 728.3 400.3 771.2 408C814 415.7 857 438.3 878.5 449.7L900 461L900 601L878.5 601C857 601 814 601 771.2 601C728.3 601 685.7 601 642.8 601C600 601 557 601 514.2 601C471.3 601 428.7 601 385.8 601C343 601 300 601 257.2 601C214.3 601 171.7 601 128.8 601C86 601 43 601 21.5 601L0 601Z" fill="#f38181"></path><path d="M0 490L21.5 490C43 490 86 490 128.8 487.8C171.7 485.7 214.3 481.3 257.2 476.5C300 471.7 343 466.3 385.8 465.3C428.7 464.3 471.3 467.7 514.2 473C557 478.3 600 485.7 642.8 483.3C685.7 481 728.3 469 771.2 469.8C814 470.7 857 484.3 878.5 491.2L900 498L900 601L878.5 601C857 601 814 601 771.2 601C728.3 601 685.7 601 642.8 601C600 601 557 601 514.2 601C471.3 601 428.7 601 385.8 601C343 601 300 601 257.2 601C214.3 601 171.7 601 128.8 601C86 601 43 601 21.5 601L0 601Z" fill="#e96c78"></path><path d="M0 495L21.5 497.3C43 499.7 86 504.3 128.8 509.2C171.7 514 214.3 519 257.2 514.2C300 509.3 343 494.7 385.8 484.8C428.7 475 471.3 470 514.2 476.2C557 482.3 600 499.7 642.8 501.3C685.7 503 728.3 489 771.2 485.2C814 481.3 857 487.7 878.5 490.8L900 494L900 601L878.5 601C857 601 814 601 771.2 601C728.3 601 685.7 601 642.8 601C600 601 557 601 514.2 601C471.3 601 428.7 601 385.8 601C343 601 300 601 257.2 601C214.3 601 171.7 601 128.8 601C86 601 43 601 21.5 601L0 601Z" fill="#de5771"></path><path d="M0 541L21.5 534.2C43 527.3 86 513.7 128.8 509.8C171.7 506 214.3 512 257.2 517C300 522 343 526 385.8 525.3C428.7 524.7 471.3 519.3 514.2 516C557 512.7 600 511.3 642.8 516.8C685.7 522.3 728.3 534.7 771.2 538.7C814 542.7 857 538.3 878.5 536.2L900 534L900 601L878.5 601C857 601 814 601 771.2 601C728.3 601 685.7 601 642.8 601C600 601 557 601 514.2 601C471.3 601 428.7 601 385.8 601C343 601 300 601 257.2 601C214.3 601 171.7 601 128.8 601C86 601 43 601 21.5 601L0 601Z" fill="#d3406c"></path><path d="M0 577L21.5 570.3C43 563.7 86 550.3 128.8 550.8C171.7 551.3 214.3 565.7 257.2 569.3C300 573 343 566 385.8 564C428.7 562 471.3 565 514.2 568.2C557 571.3 600 574.7 642.8 570C685.7 565.3 728.3 552.7 771.2 549.8C814 547 857 554 878.5 557.5L900 561L900 601L878.5 601C857 601 814 601 771.2 601C728.3 601 685.7 601 642.8 601C600 601 557 601 514.2 601C471.3 601 428.7 601 385.8 601C343 601 300 601 257.2 601C214.3 601 171.7 601 128.8 601C86 601 43 601 21.5 601L0 601Z" fill="#c62368"></path></svg>