<svg id="visual" viewBox="0 0 900 600" width="900" height="600" xmlns="http://www.w3.org/2000/svg" xmlns:xlink="http://www.w3.org/1999/xlink" version="1.1"><path d="M0 403L21.5 406.2C43 409.3 86 415.7 128.8 405C171.7 394.3 214.3 366.7 257.2 357.7C300 348.7 343 358.3 385.8 370.7C428.7 383 471.3 398 514.2 398.8C557 399.7 600 386.3 642.8 391.2C685.7 396 728.3 419 771.2 413.5C814 408 857 374 878.5 357L900 340L900 601L878.5 601C857 601 814 601 771.2 601C728.3 601 685.7 601 642.8 601C600 601 557 601 514.2 601C471.3 601 428.7 601 385.8 601C343 601 300 601 257.2 601C214.3 601 171.7 601 128.8 601C86 601 43 601 21.5 601L0 601Z" fill="#f38181"></path><path d="M0 462L21.5 452.8C43 443.7 86 425.3 128.8 419.3C171.7 413.3 214.3 419.7 257.2 415.5C300 411.3 343 396.7 385.8 398.5C428.7 400.3 471.3 418.7 514.2 432.2C557 445.7 600 454.3 642.8 451.7C685.7 449 728.3 435 771.2 426.2C814 417.3 857 413.7 878.5 411.8L900 410L900 601L878.5 601C857 601 814 601 771.2 601C728.3 601 685.7 601 642.8 601C600 601 557 601 514.2 601C471.3 601 428.7 601 385.8 601C343 601 300 601 257.2 601C214.3 601 171.7 601 128.8 601C86 601 43 601 21.5 601L0 601Z" fill="#e96c78"></path><path d="M0 435L21.5 437.5C43 440 86 445 128.8 456.7C171.7 468.3 214.3 486.7 257.2 494.5C300 502.3 343 499.7 385.8 495.7C428.7 491.7 471.3 486.3 514.2 481.8C557 477.3 600 473.7 642.8 475.2C685.7 476.7 728.3 483.3 771.2 481.3C814 479.3 857 468.7 878.5 463.3L900 458L900 601L878.5 601C857 601 814 601 771.2 601C728.3 601 685.7 601 642.8 601C600 601 557 601 514.2 601C471.3 601 428.7 601 385.8 601C343 601 300 601 257.2 601C214.3 601 171.7 601 128.8 601C86 601 43 601 21.5 601L0 601Z" fill="#de5771"></path><path d="M0 502L21.5 502.8C43 503.7 86 505.3 128.8 501.8C171.7 498.3 214.3 489.7 257.2 492.2C300 494.7 343 508.3 385.8 510.2C428.7 512 471.3 502 514.2 495C557 488 600 484 642.8 483.8C685.7 483.7 728.3 487.3 771.2 487.2C814 487 857 483 878.5 481L900 479L900 601L878.5 601C857 601 814 601 771.2 601C728.3 601 685.7 601 642.8 601C600 601 557 601 514.2 601C471.3 601 428.7 601 385.8 601C343 601 300 601 257.2 601C214.3 601 171.7 601 128.8 601C86 601 43 601 21.5 601L0 601Z" fill="#d3406c"></path><path d="M0 576L21.5 568.8C43 561.7 86 547.3 128.8 540C171.7 532.7 214.3 532.3 257.2 538.3C300 544.3 343 556.7 385.8 560.3C428.7 564 471.3 559 514.2 558.8C557 558.7 600 563.3 642.8 563C685.7 562.7 728.3 557.3 771.2 558.5C814 559.7 857 567.3 878.5 571.2L900 575L900 601L878.5 601C857 601 814 601 771.2 601C728.3 601 685.7 601 642.8 601C600 601 557 601 514.2 601C471.3 601 428.7 601 385.8 601C343 601 300 601 257.2 601C214.3 601 171.7 601 128.8 601C86 601 43 601 21.5 601L0 601Z" fill="#c62368"></path></svg>